{"title":"18+ Monsters Dark Continent 2014 UNCENSORED Movies DVDRip XViD N","uid":11756532,"size":738791716,"categoryP":"video","categoryS":"movies","magnet":"?xt=urn:btih:82744ec4cfe373641daa6dde1f6f34f51ca5aff9&amp;dn=18%2B+Monsters+Dark+Continent+2014+UNCENSORED+Movies+DVDRip+XViD+N&amp;tr=udp%3A%2F%2Ftracker.openbittorrent.com%3A80&amp;tr=udp%3A%2F%2Fopen.demonii.com%3A1337&amp;tr=udp%3A%2F%2Ftracker.coppersurfer.tk%3A6969&amp;tr=udp%3A%2F%2Fexodus.desync.com%3A6969","seeders":0,"leechers":1,"uploader":"basicssom","files":2,"time":1426399889,"description":"----------------------------------------------------------------\n18+ Monsters Dark Continent 2014 UNCENSORED English Movies DVDRip XViD AAC New Source with Sample ~ â˜»rDXâ˜»\n\nSCREEN SHOTS &amp; POSTER:\n &lt;a href=&quot;\nhttp://planethost.co.nr/2015/3/MonstersDarkContinent/11.html&quot; rel=&quot;nofollow&quot; target=&quot;_NEW&quot;&gt;\nhttp://planethost.co.nr/2015/3/MonstersDarkContinent/11.html&lt;/a&gt; &lt;a href=&quot;\nhttp://planethost.co.nr/2015/3/MonstersDarkContinent/1.html&quot; rel=&quot;nofollow&quot; target=&quot;_NEW&quot;&gt;\nhttp://planethost.co.nr/2015/3/MonstersDarkContinent/1.html&lt;/a&gt; &lt;a href=&quot;\nhttp://planethost.co.nr/2015/3/MonstersDarkContinent/2.html&quot; rel=&quot;nofollow&quot; target=&quot;_NEW&quot;&gt;\nhttp://planethost.co.nr/2015/3/MonstersDarkContinent/2.html&lt;/a&gt; &lt;a href=&quot;\nhttp://planethost.co.nr/2015/3/MonstersDarkContinent/3.html&quot; rel=&quot;nofollow&quot; target=&quot;_NEW&quot;&gt;\nhttp://planethost.co.nr/2015/3/MonstersDarkContinent/3.html&lt;/a&gt; &lt;a href=&quot;\nhttp://planethost.co.nr/2015/3/MonstersDarkContinent/4.html&quot; rel=&quot;nofollow&quot; target=&quot;_NEW&quot;&gt;\nhttp://planethost.co.nr/2015/3/MonstersDarkContinent/4.html&lt;/a&gt; &lt;a href=&quot;\nhttp://planethost.co.nr/2015/3/MonstersDarkContinent/5.html&quot; rel=&quot;nofollow&quot; target=&quot;_NEW&quot;&gt;\nhttp://planethost.co.nr/2015/3/MonstersDarkContinent/5.html&lt;/a&gt; &lt;a href=&quot;\nhttp://planethost.co.nr/2015/3/MonstersDarkContinent/6.html&quot; rel=&quot;nofollow&quot; target=&quot;_NEW&quot;&gt;\nhttp://planethost.co.nr/2015/3/MonstersDarkContinent/6.html&lt;/a&gt; &lt;a href=&quot;\nhttp://planethost.co.nr/2015/3/MonstersDarkContinent/7.html&quot; rel=&quot;nofollow&quot; target=&quot;_NEW&quot;&gt;\nhttp://planethost.co.nr/2015/3/MonstersDarkContinent/7.html&lt;/a&gt; &lt;a href=&quot;\nhttp://planethost.co.nr/2015/3/MonstersDarkContinent/8.html&quot; rel=&quot;nofollow&quot; target=&quot;_NEW&quot;&gt;\nhttp://planethost.co.nr/2015/3/MonstersDarkContinent/8.html&lt;/a&gt; &lt;a href=&quot;\nhttp://planethost.co.nr/2015/3/MonstersDarkContinent/9.html&quot; rel=&quot;nofollow&quot; target=&quot;_NEW&quot;&gt;\nhttp://planethost.co.nr/2015/3/MonstersDarkContinent/9.html&lt;/a&gt; &lt;a href=&quot;\nhttp://planethost.co.nr/2015/3/MonstersDarkContinent/10.html&quot; rel=&quot;nofollow&quot; target=&quot;_NEW&quot;&gt;\nhttp://planethost.co.nr/2015/3/MonstersDarkContinent/10.html&lt;/a&gt;\n\nFormat                                   : Matroska\nFormat version                           : Version 4 / Version 2\nFile size                                : 691 MiB\nDuration                                 : 1h 59mn\nOverall bit rate                         : 812 Kbps\nMovie name                               : Monsters Dark Continent 2014 English Movies DVDRip XViD AAC New Source ~ rDX ~\n\nVideo\nID                                       : 1\nFormat                                   : MPEG-4 Visual\nFormat profile                           : Advanced Simple@L5\nFormat settings, BVOP                    : Yes\nFormat settings, QPel                    : No\nFormat settings, GMC                     : No warppoints\nFormat settings, Matrix                  : Default (H.263)\nCodec ID                                 : V_MS/VFW/FOURCC / XVID\nCodec ID/Hint                            : XviD\nDuration                                 : 1h 59mn\nBit rate                                 : 684 Kbps\nWidth                                    : 640 pixels\nHeight                                   : 272 pixels\nDisplay aspect ratio                     : 2.35:1\nFrame rate mode                          : Constant\nFrame rate                               : 23.976 fps\nColor space                              : YUV\nChroma subsampling                       : 4:2:0\nBit depth                                : 8 bits\nScan type                                : Progressive\nCompression mode                         : Lossy\nBits/(Pixel*Frame)                       : 0.164\nStream size                              : 582 MiB (84%)\nTitle                                    : ~ rDX ~\nWriting library                          : XviD 64\nDefault                                  : Yes\nForced                                   : No\n\nAudio\nID                                       : 2\nFormat                                   : MPEG Audio\nFormat version                           : Version 1\nFormat profile                           : Layer 3\nMode                                     : Joint stereo\nCodec ID                                 : A_MPEG/L3\nCodec ID/Hint                            : MP3\nDuration                                 : 1h 59mn\nBit rate mode                            : Constant\nBit rate                                 : 112 Kbps\nChannel(s)                               : 2 channels\nSampling rate                            : 48.0 KHz\nCompression mode                         : Lossy\nStream size                              : 95.4 MiB (14%)\nTitle                                    : ~ rDX ~\nWriting library                          : LAME3.99r\nEncoding settings                        : -m j -V 4 -q 3 -lowpass 15.6 -b 112\nDefault                                  : Yes\nForced                                   : No","torrent":{"xt":"urn:btih:82744ec4cfe373641daa6dde1f6f34f51ca5aff9","amp;dn":"18%2B+Monsters+Dark+Continent+2014+UNCENSORED+Movies+DVDRip+XViD+N","amp;tr":["udp%3A%2F%2Ftracker.openbittorrent.com%3A80","udp%3A%2F%2Fopen.demonii.com%3A1337","udp%3A%2F%2Ftracker.coppersurfer.tk%3A6969","udp%3A%2F%2Fexodus.desync.com%3A6969"],"infoHash":"82744ec4cfe373641daa6dde1f6f34f51ca5aff9","infoHashBuffer":{"type":"Buffer","data":[130,116,78,196,207,227,115,100,29,170,109,222,31,111,52,245,28,165,175,249]},"announce":[],"urlList":[]}}